<svg width="4400" height="2481" xmlns="http://www.w3.org/2000/svg" xmlns:xlink="http://www.w3.org/1999/xlink" overflow="hidden"><defs><clipPath id="clip0"><rect x="0" y="-5" width="4400" height="2481"/></clipPath></defs><g clip-path="url(#clip0)" transform="matrix(1 0 0 1 0 5)"><rect x="0" y="1504" width="4400" height="972" fill="#D9D9D9"/><rect x="0" y="-5.00016" width="4400" height="1509" fill="#F2F2F2"/><rect x="45.4999" y="1779.5" width="918" height="655" stroke="#000000" stroke-width="6.875" stroke-linejoin="round" stroke-miterlimit="10" stroke-dasharray="27.5 20.625" fill="#FFFFFF"/><text font-family="SimSun,SimSun_MSFontService,sans-serif" font-weight="700" font-size="73" transform="matrix(1 0 0 1 77.5976 1867)">初始化<tspan font-family="Times New Roman,Times New Roman_MSFontService,sans-serif" font-weight="400" font-size="73" x="0" y="88">//</tspan><tspan font-weight="400" font-size="73" x="41.25" y="88">一阶段收到的最大</tspan><tspan font-weight="400" font-size="73" x="627.917" y="88">流水号</tspan><tspan font-family="Times New Roman,Times New Roman_MSFontService,sans-serif" font-weight="400" font-size="73" x="0" y="175">maxSerialNum</tspan><tspan font-family="Times New Roman,Times New Roman_MSFontService,sans-serif" font-weight="400" font-size="73" x="445.156" y="175">=</tspan><tspan font-family="Times New Roman,Times New Roman_MSFontService,sans-serif" font-weight="400" font-size="73" x="486.406" y="175">0</tspan><tspan font-family="Times New Roman,Times New Roman_MSFontService,sans-serif" font-weight="400" font-size="73" x="523.073" y="175">;</tspan><tspan font-family="Times New Roman,Times New Roman_MSFontService,sans-serif" font-weight="400" font-size="73" x="0" y="264">//</tspan><tspan font-weight="400" font-size="73" x="41.25" y="264">推荐提案</tspan><tspan font-weight="400" font-size="73" x="334.583" y="264">编号</tspan><tspan font-family="Times New Roman,Times New Roman_MSFontService,sans-serif" font-weight="400" font-size="73" x="0" y="351">acceptedSerialNum</tspan><tspan font-family="Times New Roman,Times New Roman_MSFontService,sans-serif" font-weight="400" font-size="73" x="575.781" y="351">=0;</tspan><tspan font-family="Times New Roman,Times New Roman_MSFontService,sans-serif" font-weight="400" font-size="73" x="0" y="440">//</tspan><tspan font-weight="400" font-size="73" x="41.25" y="440">推荐提案内容</tspan><tspan font-family="Times New Roman,Times New Roman_MSFontService,sans-serif" font-weight="400" font-size="73" x="0" y="527">acceptedValue</tspan><tspan font-family="Times New Roman,Times New Roman_MSFontService,sans-serif" font-weight="400" font-size="73" x="432.552" y="527">=0;</tspan></text><rect x="666.5" y="1223.5" width="1062" height="211" stroke="#000000" stroke-width="6.875" stroke-linejoin="round" stroke-miterlimit="10" fill="#FFFFFF"/><text font-family="SimSun,SimSun_MSFontService,sans-serif" font-weight="400" font-size="73" transform="matrix(1 0 0 1 698.606 1312)">创建<tspan font-size="73" x="146.667" y="0">提案</tspan><tspan font-family="Times New Roman,Times New Roman_MSFontService,sans-serif" font-size="73" x="293.333" y="0">[</tspan><tspan font-size="73" x="317.969" y="0">编号</tspan><tspan font-family="Times New Roman,Times New Roman_MSFontService,sans-serif" font-size="73" x="464.635" y="0">Serial</tspan><tspan font-family="Times New Roman,Times New Roman_MSFontService,sans-serif" font-size="73" x="636.51" y="0">, </tspan><tspan font-size="73" x="673.177" y="0">内容</tspan><tspan font-family="Times New Roman,Times New Roman_MSFontService,sans-serif" font-size="73" x="819.844" y="0">Value</tspan><tspan font-family="Times New Roman,Times New Roman_MSFontService,sans-serif" font-size="73" x="995.156" y="0">]</tspan><tspan font-size="73" x="0" y="88">发送给所有</tspan><tspan font-size="73" x="366.667" y="88">的</tspan><tspan font-family="Times New Roman,Times New Roman_MSFontService,sans-serif" font-size="73" x="440" y="88">Acceptor</tspan></text><rect x="2293.5" y="1223.5" width="1275" height="211" stroke="#000000" stroke-width="6.875" stroke-linejoin="round" stroke-miterlimit="10" fill="#FFFFFF"/><text font-family="SimSun,SimSun_MSFontService,sans-serif" font-weight="400" font-size="73" transform="matrix(1 0 0 1 2326.44 1312)">发送<tspan font-family="Times New Roman,Times New Roman_MSFontService,sans-serif" font-size="73" x="146.667" y="0">Accept</tspan><tspan font-size="73" x="354.636" y="0">请求</tspan><tspan font-family="Times New Roman,Times New Roman_MSFontService,sans-serif" font-size="73" x="501.302" y="0">[</tspan><tspan font-size="73" x="525.938" y="0">编号</tspan><tspan font-family="Times New Roman,Times New Roman_MSFontService,sans-serif" font-size="73" x="672.604" y="0">Serial</tspan><tspan font-family="Times New Roman,Times New Roman_MSFontService,sans-serif" font-size="73" x="844.479" y="0">, </tspan><tspan font-size="73" x="881.146" y="0">内容</tspan><tspan font-family="Times New Roman,Times New Roman_MSFontService,sans-serif" font-size="73" x="1027.81" y="0">Value</tspan><tspan font-family="Times New Roman,Times New Roman_MSFontService,sans-serif" font-size="73" x="1203.13" y="0">]</tspan><tspan font-size="73" x="0" y="88">到所有给自己投票的</tspan><tspan font-family="Times New Roman,Times New Roman_MSFontService,sans-serif" font-size="73" x="660" y="88">Acceptor</tspan></text><rect x="45.4999" y="75.5001" width="1080" height="1011" stroke="#000000" stroke-width="6.875" stroke-linejoin="round" stroke-miterlimit="10" stroke-dasharray="27.5 20.625" fill="#FFFFFF"/><text font-family="SimSun,SimSun_MSFontService,sans-serif" font-weight="700" font-size="73" transform="matrix(1 0 0 1 77.5976 163)">初始化<tspan font-family="Times New Roman,Times New Roman_MSFontService,sans-serif" font-weight="400" font-size="73" x="0" y="88">//</tspan><tspan font-weight="400" font-size="73" x="41.25" y="88">已被接受的提议中编号最大</tspan><tspan font-weight="400" font-size="73" x="921.25" y="88">的</tspan><tspan font-family="Times New Roman,Times New Roman_MSFontService,sans-serif" font-weight="400" font-size="73" x="0" y="175">maxAcceptedSerialNum</tspan><tspan font-family="Times New Roman,Times New Roman_MSFontService,sans-serif" font-weight="400" font-size="73" x="722.448" y="175">=</tspan><tspan font-family="Times New Roman,Times New Roman_MSFontService,sans-serif" font-weight="400" font-size="73" x="763.698" y="175">0</tspan><tspan font-family="Times New Roman,Times New Roman_MSFontService,sans-serif" font-weight="400" font-size="73" x="800.365" y="175">;</tspan><tspan font-family="Times New Roman,Times New Roman_MSFontService,sans-serif" font-weight="400" font-size="73" x="0" y="264">//</tspan><tspan font-weight="400" font-size="73" x="41.25" y="264">完成拉票，准备开始二</tspan><tspan font-weight="400" font-size="73" x="774.583" y="264">阶段</tspan><tspan font-family="Times New Roman,Times New Roman_MSFontService,sans-serif" font-weight="400" font-size="73" x="0" y="351">proposeFinished</tspan><tspan font-family="Times New Roman,Times New Roman_MSFontService,sans-serif" font-weight="400" font-size="73" x="485.833" y="351">=false;</tspan><tspan font-family="Times New Roman,Times New Roman_MSFontService,sans-serif" font-weight="400" font-size="73" x="0" y="440">//</tspan><tspan font-weight="400" font-size="73" x="41.25" y="440">提议被批准</tspan><tspan font-family="Times New Roman,Times New Roman_MSFontService,sans-serif" font-weight="400" font-size="73" x="0" y="527">isAgree</tspan><tspan font-family="Times New Roman,Times New Roman_MSFontService,sans-serif" font-weight="400" font-size="73" x="228.594" y="527">=false;</tspan><tspan font-family="Times New Roman,Times New Roman_MSFontService,sans-serif" font-weight="400" font-size="73" x="0" y="616">//</tspan><tspan font-weight="400" font-size="73" x="41.25" y="616">投票数量，两阶段共</tspan><tspan font-weight="400" font-size="73" x="701.25" y="616">用</tspan><tspan font-family="Times New Roman,Times New Roman_MSFontService,sans-serif" font-weight="400" font-size="73" x="0" y="703">okCount</tspan><tspan font-family="Times New Roman,Times New Roman_MSFontService,sans-serif" font-weight="400" font-size="73" x="252.656" y="703">=0;</tspan><tspan font-family="Times New Roman,Times New Roman_MSFontService,sans-serif" font-weight="400" font-size="73" x="0" y="792">//</tspan><tspan font-weight="400" font-size="73" x="41.25" y="792">拒绝数量，两阶段共</tspan><tspan font-weight="400" font-size="73" x="701.25" y="792">用</tspan><tspan font-family="Times New Roman,Times New Roman_MSFontService,sans-serif" font-weight="400" font-size="73" x="0" y="879">refuseCount</tspan><tspan font-family="Times New Roman,Times New Roman_MSFontService,sans-serif" font-weight="400" font-size="73" x="359.219" y="879">=0;</tspan></text><rect x="1272.5" y="76.5002" width="1587" height="1011" stroke="#000000" stroke-width="6.875" stroke-miterlimit="8" fill="#FFFFFF"/><rect x="1316.5" y="237.5" width="1499" height="300" stroke="#000000" stroke-width="6.875" stroke-linejoin="round" stroke-miterlimit="10" fill="none"/><text font-family="Times New Roman,Times New Roman_MSFontService,sans-serif" font-weight="400" font-size="73" transform="matrix(1 0 0 1 1348.84 326)">if(<tspan font-family="SimSun,SimSun_MSFontService,sans-serif" font-size="73" x="69.8958" y="0">拒绝或者超时没有得到回复</tspan><tspan font-size="73" x="949.896" y="0">)</tspan><tspan font-size="73" x="73.3333" y="88">if(</tspan><tspan font-family="SimSun,SimSun_MSFontService,sans-serif" font-size="73" x="143.229" y="88">拒绝数量超过</tspan><tspan font-size="73" x="583.229" y="88">Acceptor</tspan><tspan font-family="SimSun,SimSun_MSFontService,sans-serif" font-size="73" x="852.5" y="88">的一半</tspan>)<tspan font-family="SimSun,SimSun_MSFontService,sans-serif" font-size="73" x="146.667" y="176">增大</tspan><tspan font-size="73" x="293.333" y="176">Serial</tspan><tspan font-size="73" x="465.208" y="176">,</tspan><tspan font-family="SimSun,SimSun_MSFontService,sans-serif" font-size="73" x="501.875" y="176">重新开始</tspan>Propose<tspan font-family="SimSun,SimSun_MSFontService,sans-serif" font-size="73" x="1031.82" y="176">阶段</tspan><tspan font-size="73" x="1178.49" y="176">;</tspan></text><rect x="1316.5" y="537.5" width="1499" height="300" stroke="#000000" stroke-width="6.875" stroke-linejoin="round" stroke-miterlimit="10" fill="none"/><text font-family="Times New Roman,Times New Roman_MSFontService,sans-serif" font-weight="400" font-size="73" transform="matrix(1 0 0 1 1348.84 624)">if<tspan font-size="73" x="45.2604" y="0">(</tspan><tspan font-size="73" x="69.8958" y="0">acceptedSerialNum</tspan><tspan font-size="73" x="645.677" y="0">&gt;</tspan>maxAcceptedSerialNum)<tspan font-size="73" x="73.3333" y="88">maxAcceptedSerialNum</tspan><tspan font-size="73" x="795.781" y="88">=</tspan>acceptedSerialNum;<tspan font-size="73" x="73.3333" y="176">Value</tspan><tspan font-size="73" x="248.646" y="176">=</tspan>acceptedValue<tspan font-size="73" x="722.448" y="176">;</tspan></text><rect x="1316.5" y="837.5" width="1499" height="211" stroke="#000000" stroke-width="6.875" stroke-linejoin="round" stroke-miterlimit="10" fill="none"/><text font-family="Times New Roman,Times New Roman_MSFontService,sans-serif" font-weight="400" font-size="73" transform="matrix(1 0 0 1 1348.84 925)">if<tspan font-size="73" x="45.2604" y="0">(</tspan><tspan font-family="SimSun,SimSun_MSFontService,sans-serif" font-size="73" x="69.8958" y="0">同意</tspan><tspan font-family="SimSun,SimSun_MSFontService,sans-serif" font-size="73" x="216.563" y="0">数量超过</tspan><tspan font-size="73" x="509.896" y="0">Acceptor</tspan><tspan font-family="SimSun,SimSun_MSFontService,sans-serif" font-size="73" x="779.167" y="0">的一半</tspan>)<tspan font-size="73" x="73.3333" y="88">proposeFinished</tspan><tspan font-size="73" x="559.167" y="88">=true</tspan><tspan font-size="73" x="715" y="88">;  //</tspan><tspan font-size="73" x="813.542" y="88">Propose</tspan><tspan font-family="SimSun,SimSun_MSFontService,sans-serif" font-size="73" x="1050.16" y="88">阶段</tspan><tspan font-family="SimSun,SimSun_MSFontService,sans-serif" font-size="73" x="1196.82" y="88">结束</tspan><tspan font-weight="700" font-size="73" x="-44.1444" y="-761">Proposer::Proposed()</tspan></text><rect x="3005.5" y="359.5" width="1350" height="727" stroke="#000000" stroke-width="6.875" stroke-miterlimit="8" fill="#FFFFFF"/><rect x="3054.5" y="528.5" width="1253" height="300" stroke="#000000" stroke-width="6.875" stroke-linejoin="round" stroke-miterlimit="10" fill="none"/><text font-family="Times New Roman,Times New Roman_MSFontService,sans-serif" font-weight="400" font-size="73" transform="matrix(1 0 0 1 3086.85 616)">if(<tspan font-family="SimSun,SimSun_MSFontService,sans-serif" font-size="73" x="69.8958" y="0">拒绝或者超时没有得到回复</tspan><tspan font-size="73" x="949.896" y="0">)</tspan><tspan font-size="73" x="73.3333" y="88">if(</tspan><tspan font-family="SimSun,SimSun_MSFontService,sans-serif" font-size="73" x="143.229" y="88">拒绝数量超过</tspan><tspan font-size="73" x="583.229" y="88">Acceptor</tspan><tspan font-family="SimSun,SimSun_MSFontService,sans-serif" font-size="73" x="852.5" y="88">的一半</tspan>)<tspan font-family="SimSun,SimSun_MSFontService,sans-serif" font-size="73" x="146.667" y="176">增大</tspan><tspan font-size="73" x="293.333" y="176">Serial</tspan><tspan font-size="73" x="465.208" y="176">,</tspan><tspan font-family="SimSun,SimSun_MSFontService,sans-serif" font-size="73" x="501.875" y="176">重新开始</tspan>Propose<tspan font-family="SimSun,SimSun_MSFontService,sans-serif" font-size="73" x="1031.82" y="176">阶段</tspan><tspan font-size="73" x="1178.49" y="176">;</tspan></text><rect x="3054.5" y="828.5" width="1253" height="211" stroke="#000000" stroke-width="6.875" stroke-linejoin="round" stroke-miterlimit="10" fill="none"/><text font-family="Times New Roman,Times New Roman_MSFontService,sans-serif" font-weight="400" font-size="73" transform="matrix(1 0 0 1 3086.85 916)">if<tspan font-size="73" x="45.2605" y="0">(</tspan><tspan font-family="SimSun,SimSun_MSFontService,sans-serif" font-size="73" x="69.8958" y="0">同意</tspan><tspan font-family="SimSun,SimSun_MSFontService,sans-serif" font-size="73" x="216.563" y="0">数量超过</tspan><tspan font-size="73" x="509.896" y="0">Acceptor</tspan><tspan font-family="SimSun,SimSun_MSFontService,sans-serif" font-size="73" x="779.167" y="0">的一半</tspan>)<tspan font-size="73" x="73.3333" y="88">isAgree</tspan><tspan font-size="73" x="301.927" y="88">=true</tspan><tspan font-size="73" x="457.761" y="88">;  //</tspan><tspan font-size="73" x="556.302" y="88">Accept</tspan><tspan font-family="SimSun,SimSun_MSFontService,sans-serif" font-size="73" x="764.271" y="88">阶段</tspan><tspan font-family="SimSun,SimSun_MSFontService,sans-serif" font-size="73" x="910.938" y="88">结束</tspan><tspan font-weight="700" font-size="73" x="-48.8479" y="-470">Proposer::Accepted()</tspan></text><rect x="1382.5" y="1660.5" width="1366" height="773" stroke="#000000" stroke-width="6.875" stroke-miterlimit="8" fill="#FFFFFF"/><rect x="1427.5" y="1825.5" width="1277" height="566" stroke="#000000" stroke-width="6.875" stroke-linejoin="round" stroke-miterlimit="10" fill="none"/><text font-family="Times New Roman,Times New Roman_MSFontService,sans-serif" font-weight="400" font-size="73" transform="matrix(1 0 0 1 1459.8 1912)">if<tspan font-size="73" x="45.2605" y="0">(</tspan><tspan font-size="73" x="69.8959" y="0">maxSerialNum</tspan><tspan font-size="73" x="515.052" y="0">&gt;Serial)</tspan><tspan font-family="SimSun,SimSun_MSFontService,sans-serif" font-size="73" x="73.3334" y="89">拒绝或者不回复</tspan><tspan font-size="73" x="0" y="176">e</tspan><tspan font-size="73" x="32.6563" y="176">lse</tspan><tspan font-size="73" x="73.3334" y="264">maxSerialNum</tspan><tspan font-size="73" x="518.49" y="264">=</tspan>Serial;<tspan font-family="SimSun,SimSun_MSFontService,sans-serif" font-size="73" x="73.3334" y="353">回复</tspan>: <tspan font-size="73" x="258.958" y="353">OK,</tspan><tspan font-size="73" x="73.3334" y="440">(</tspan><tspan font-size="73" x="97.9688" y="440">acceptedSerialNum</tspan><tspan font-size="73" x="673.75" y="440">, </tspan><tspan font-size="73" x="710.417" y="440">acceptedValue</tspan>)<tspan font-weight="700" font-size="73" x="-44.6283" y="-164">Accept</tspan><tspan font-weight="700" font-size="73" x="171.361" y="-164">o</tspan><tspan font-weight="700" font-size="73" x="208.028" y="-164">r::</tspan><tspan font-weight="700" font-size="73" x="289.955" y="-164">Propose</tspan><tspan font-weight="700" font-size="73" x="542.611" y="-164">()</tspan></text><rect x="3161.5" y="1660.5" width="1039" height="773" stroke="#000000" stroke-width="6.875" stroke-miterlimit="8" fill="#FFFFFF"/><rect x="3207.5" y="1827.5" width="946" height="566" stroke="#000000" stroke-width="6.875" stroke-linejoin="round" stroke-miterlimit="10" fill="none"/><text font-family="Times New Roman,Times New Roman_MSFontService,sans-serif" font-weight="400" font-size="73" transform="matrix(1 0 0 1 3240.36 1914)">if<tspan font-size="73" x="45.2605" y="0">(</tspan><tspan font-size="73" x="69.896" y="0">maxSerialNum</tspan><tspan font-size="73" x="515.052" y="0">&gt;Serial)</tspan><tspan font-family="SimSun,SimSun_MSFontService,sans-serif" font-size="73" x="73.3335" y="89">拒绝或者不回复</tspan><tspan font-size="73" x="0" y="176">e</tspan><tspan font-size="73" x="32.6563" y="176">lse</tspan><tspan font-size="73" x="73.3335" y="264">acceptedSerialNum</tspan><tspan font-size="73" x="649.115" y="264">=Serial;</tspan><tspan font-size="73" x="73.3335" y="352">acceptedValue</tspan>=Value;<tspan font-family="SimSun,SimSun_MSFontService,sans-serif" font-size="73" x="73.3335" y="441">回复</tspan><tspan font-size="73" x="220" y="441">: </tspan><tspan font-size="73" x="258.959" y="441">OK</tspan><tspan font-weight="700" font-size="73" x="-46.8296" y="-166">Accept</tspan><tspan font-weight="700" font-size="73" x="169.16" y="-166">o</tspan><tspan font-weight="700" font-size="73" x="205.827" y="-166">r::</tspan><tspan font-weight="700" font-size="73" x="306.087" y="-166">Accept</tspan><tspan font-weight="700" font-size="73" x="522.077" y="-166">()</tspan></text><path d="M0-3.4375 615.961-3.4375 615.961 162.64 609.086 162.64 609.086 0 612.523 3.4375 0 3.4375ZM626.273 158.057 612.523 185.557 598.773 158.057Z" transform="matrix(1.83697e-16 1 1 -1.83697e-16 1197.5 1434.5)"/><path d="M2062.06 1661.14 2062.06 1633.64 2068.94 1633.64 2068.94 1661.14ZM2062.06 1613.02 2062.06 1585.52 2068.94 1585.52 2068.94 1613.02ZM2062.06 1564.89 2062.06 1537.39 2068.94 1537.39 2068.94 1564.89ZM2062.06 1516.77 2062.06 1489.27 2068.94 1489.27 2068.94 1516.77ZM2062.06 1468.64 2062.06 1441.14 2068.94 1441.14 2068.94 1468.64ZM2062.06 1420.52 2062.06 1393.02 2068.94 1393.02 2068.94 1420.52ZM2062.06 1372.39 2062.06 1344.89 2068.94 1344.89 2068.94 1372.39ZM2062.06 1324.27 2062.06 1296.77 2068.94 1296.77 2068.94 1324.27ZM2062.06 1276.14 2062.06 1248.64 2068.94 1248.64 2068.94 1276.14ZM2062.06 1228.02 2062.06 1200.52 2068.94 1200.52 2068.94 1228.02ZM2062.06 1179.89 2062.06 1152.39 2068.94 1152.39 2068.94 1179.89ZM2062.06 1131.77 2062.06 1110.42 2068.94 1110.42 2068.94 1131.77ZM2051.75 1115 2065.5 1087.5 2079.25 1115Z"/><path d="M0-3.4375 615.961-3.4375 615.961 206.782 609.086 206.782 609.086 0 612.524 3.4375 0 3.4375ZM626.274 202.198 612.524 229.698 598.774 202.198Z" transform="matrix(1.83697e-16 1 1 -1.83697e-16 2931.5 1434.5)"/><path d="M3.4375-2.1591e-06 3.43752 27.5-3.43748 27.5-3.4375 2.1591e-06ZM3.43753 48.125 3.43755 75.625-3.43745 75.625-3.43747 48.125ZM3.43756 96.25 3.43758 123.75-3.43742 123.75-3.43744 96.25ZM3.43759 144.375 3.43761 171.875-3.43739 171.875-3.43741 144.375ZM3.43762 192.5 3.43764 220-3.43736 220-3.43738 192.5ZM3.43765 240.625 3.43767 268.125-3.43733 268.125-3.43735 240.625ZM3.43768 288.75 3.4377 316.25-3.4373 316.25-3.43732 288.75ZM3.43771 336.875 3.43773 364.375-3.43727 364.375-3.43729 336.875ZM3.43774 385 3.43776 412.5-3.43724 412.5-3.43726 385ZM3.43777 433.125 3.43779 460.625-3.43721 460.625-3.43723 433.125ZM3.4378 481.25 3.43782 508.75-3.43718 508.75-3.4372 481.25ZM3.43783 529.375 3.43785 551.659-3.43715 551.659-3.43717 529.375ZM13.7503 547.075 0.000360892 574.575-13.7497 547.075Z" transform="matrix(1 0 0 -1 3680.5 1661.08)"/><path d="M0-3.4375 122.665-3.4375 122.665 813.359 115.79 813.359 115.79 0 119.228 3.4375 0 3.4375ZM132.978 808.775 119.228 836.275 105.478 808.775Z" transform="matrix(-1 1.22465e-16 1.22465e-16 1 1316.73 387.5)"/><text font-family="SimSun,SimSun_MSFontService,sans-serif" font-weight="700" font-size="73" transform="matrix(1 0 0 1 1868.29 1627)">投票<tspan font-size="73" x="1861.02" y="0">接受</tspan></text><path d="M2815.5 939.063 2935.18 939.063 2935.18 1200.63 2928.3 1200.63 2928.3 942.5 2931.74 945.938 2815.5 945.938ZM2945.49 1196.04 2931.74 1223.54 2917.99 1196.04Z"/><path d="M0 0 123.026 0.000360892" stroke="#000000" stroke-width="6.875" stroke-miterlimit="8" fill="none" fill-rule="evenodd" transform="matrix(-1 0 0 1 3054.53 678.5)"/><path d="M0 0 0.000360892 651.614" stroke="#000000" stroke-width="6.875" stroke-miterlimit="8" fill="none" fill-rule="evenodd" transform="matrix(1 0 0 -1 2931.5 678.114)"/><path d="M0-3.4375 1737.66-3.4375 1737.66 1174.21 1730.78 1174.21 1730.78 0 1734.22 3.4375 0 3.4375ZM1747.97 1169.63 1734.22 1197.13 1720.47 1169.63Z" transform="matrix(-1 1.22465e-16 1.22465e-16 1 2931.72 26.5)"/><rect x="3421" y="72.9999" width="518" height="166"/><text fill="#FFFFFF" font-family="Times New Roman,Times New Roman_MSFontService,sans-serif" font-weight="700" font-size="110" transform="matrix(1 0 0 1 3466.51 195)">Proposer</text><rect x="28.9999" y="1557" width="513" height="166"/><text fill="#FFFFFF" font-family="Times New Roman,Times New Roman_MSFontService,sans-serif" font-weight="700" font-size="110" transform="matrix(1 0 0 1 72.1806 1679)">Acceptor</text><path d="M106.5 1258.67C106.5 1239.24 122.245 1223.5 141.667 1223.5L503.334 1223.5C522.756 1223.5 538.5 1239.24 538.5 1258.67L538.5 1399.33C538.5 1418.76 522.756 1434.5 503.334 1434.5L141.667 1434.5C122.245 1434.5 106.5 1418.76 106.5 1399.33Z" stroke="#000000" stroke-width="6.875" stroke-miterlimit="8" fill="#FFFFFF" fill-rule="evenodd"/><text font-family="SimSun,SimSun_MSFontService,sans-serif" font-weight="400" font-size="83" transform="matrix(1 0 0 1 239.735 1364)">开始</text><path d="M538.5 1326.06 643.122 1326.06 643.122 1332.94 538.5 1332.94ZM638.539 1315.75 666.038 1329.5 638.538 1343.25Z"/><path d="M3873.5 1258.67C3873.5 1239.24 3889.24 1223.5 3908.67 1223.5L4269.33 1223.5C4288.75 1223.5 4304.5 1239.24 4304.5 1258.67L4304.5 1399.33C4304.5 1418.76 4288.75 1434.5 4269.33 1434.5L3908.67 1434.5C3889.24 1434.5 3873.5 1418.76 3873.5 1399.33Z" stroke="#000000" stroke-width="6.875" stroke-miterlimit="8" fill="#FFFFFF" fill-rule="evenodd"/><text font-family="SimSun,SimSun_MSFontService,sans-serif" font-weight="400" font-size="83" transform="matrix(1 0 0 1 4006.11 1364)">结束</text><path d="M4092.94 1086.5 4092.94 1201.17 4086.06 1201.17 4086.06 1086.5ZM4103.25 1196.58 4089.5 1224.08 4075.75 1196.58Z"/></g></svg>