<svg width="3347" height="1267" xmlns="http://www.w3.org/2000/svg" xmlns:xlink="http://www.w3.org/1999/xlink" overflow="hidden"><defs><clipPath id="clip0"><rect x="442" y="955" width="3347" height="1267"/></clipPath></defs><g clip-path="url(#clip0)" transform="translate(-442 -955)"><path d="M703.5 1048.5C703.5 1029.72 718.722 1014.5 737.5 1014.5L1095.5 1014.5C1114.28 1014.5 1129.5 1029.72 1129.5 1048.5L1129.5 1184.5C1129.5 1203.28 1114.28 1218.5 1095.5 1218.5L737.5 1218.5C718.722 1218.5 703.5 1203.28 703.5 1184.5Z" stroke="#000000" stroke-width="6.875" stroke-miterlimit="8" fill="none" fill-rule="evenodd"/><text font-family="SimSun,SimSun_MSFontService,sans-serif" font-weight="400" font-size="83" transform="matrix(1 0 0 1 833.74 1148)">开始</text><path d="M451.5 1590.5 916.5 1388.5 1381.5 1590.5 916.5 1792.5Z" stroke="#000000" stroke-width="6.875" stroke-miterlimit="8" fill="none" fill-rule="evenodd"/><text font-family="Times New Roman,Times New Roman_MSFontService,sans-serif" font-weight="400" font-size="83" transform="matrix(1 0 0 1 730.615 1572)">Cache<tspan font-family="SimSun,SimSun_MSFontService,sans-serif" font-size="83" x="206.25" y="0">中已</tspan><tspan font-family="SimSun,SimSun_MSFontService,sans-serif" font-size="83" x="2.29169" y="99">缓存</tspan><tspan font-family="SimSun,SimSun_MSFontService,sans-serif" font-size="83" x="167.292" y="99">文件</tspan><tspan font-size="83" x="332.292" y="99">?</tspan></text><rect x="523.5" y="1991.5" width="787" height="227" stroke="#000000" stroke-width="6.875" stroke-miterlimit="8" fill="none"/><text font-family="SimSun,SimSun_MSFontService,sans-serif" font-weight="400" font-size="83" transform="matrix(1 0 0 1 561.031 2136)">从<tspan font-family="Times New Roman,Times New Roman_MSFontService,sans-serif" font-size="83" x="82.5" y="0">Server</tspan>中读取文件</text><rect x="1698.5" y="1991.5" width="867" height="227" stroke="#000000" stroke-width="6.875" stroke-miterlimit="8" fill="none"/><text font-family="SimSun,SimSun_MSFontService,sans-serif" font-weight="400" font-size="83" transform="matrix(1 0 0 1 1739.53 2136)">将文件内容写入<tspan font-family="Times New Roman,Times New Roman_MSFontService,sans-serif" font-size="83" x="577.5" y="0">Cache</tspan></text><rect x="2918.5" y="1003.5" width="867" height="227" stroke="#000000" stroke-width="6.875" stroke-miterlimit="8" fill="none"/><text font-family="SimSun,SimSun_MSFontService,sans-serif" font-weight="400" font-size="83" transform="matrix(1 0 0 1 3104.22 1148)">返回文件数据</text><path d="M3139.5 2037.5C3139.5 2018.72 3154.72 2003.5 3173.5 2003.5L3530.5 2003.5C3549.28 2003.5 3564.5 2018.72 3564.5 2037.5L3564.5 2173.5C3564.5 2192.28 3549.28 2207.5 3530.5 2207.5L3173.5 2207.5C3154.72 2207.5 3139.5 2192.28 3139.5 2173.5Z" stroke="#000000" stroke-width="6.875" stroke-miterlimit="8" fill="none" fill-rule="evenodd"/><text font-family="SimSun,SimSun_MSFontService,sans-serif" font-weight="400" font-size="83" transform="matrix(1 0 0 1 3269.22 2136)">结束</text><rect x="1658.5" y="958.5" width="947" height="317" stroke="#000000" stroke-width="6.875" stroke-miterlimit="8" fill="none"/><text font-family="SimSun,SimSun_MSFontService,sans-serif" font-weight="400" font-size="83" transform="matrix(1 0 0 1 1698.27 1098)">从<tspan font-family="Times New Roman,Times New Roman_MSFontService,sans-serif" font-size="83" x="82.5" y="0">Cache</tspan><tspan font-size="83" x="288.75" y="0">中</tspan>获取<tspan font-size="83" x="536.25" y="0">文件信息</tspan><tspan font-size="83" x="-4.58337" y="99">从</tspan><tspan font-family="Times New Roman,Times New Roman_MSFontService,sans-serif" font-size="83" x="77.9166" y="99">Server</tspan>中获取文件<tspan font-size="83" x="705.833" y="99">信息</tspan></text><path d="M1734.5 1590.5 2131.5 1388.5 2528.5 1590.5 2131.5 1792.5Z" stroke="#000000" stroke-width="6.875" stroke-miterlimit="8" fill="none" fill-rule="evenodd"/><text font-family="Times New Roman,Times New Roman_MSFontService,sans-serif" font-weight="400" font-size="83" transform="matrix(1 0 0 1 1982.72 1571)">Version<tspan font-family="SimSun,SimSun_MSFontService,sans-serif" font-size="83" x="-34.65" y="100">是否一致</tspan><tspan font-size="83" x="295.35" y="100">?</tspan></text><path d="M919.937 1218.5 919.938 1365.3 913.063 1365.3 913.062 1218.5ZM930.25 1360.71 916.5 1388.21 902.75 1360.71Z"/><path d="M0-3.4375 141.836-3.4375 141.836 473.661 138.398 470.223 253.88 470.223 253.88 477.098 134.961 477.098 134.961 0 138.398 3.4375 0 3.4375ZM249.296 459.911 276.796 473.661 249.296 487.411Z" transform="matrix(1 0 0 -1 1381.5 1590.16)"/><path d="M2134.94 1275.5 2134.94 1365.92 2128.06 1365.92 2128.06 1275.5ZM2145.25 1361.34 2131.5 1388.84 2117.75 1361.34Z"/><path d="M2134.94 1792.5 2134.94 1969.27 2128.06 1969.27 2128.06 1792.5ZM2145.25 1964.69 2131.5 1992.19 2117.75 1964.69Z"/><path d="M0-3.4375 216.824-3.4375 216.824 473.66 213.386 470.223 366.731 470.223 366.731 477.098 209.949 477.098 209.949 0 213.386 3.4375 0 3.4375ZM362.147 459.91 389.647 473.66 362.147 487.41Z" transform="matrix(1 0 0 -1 2528.5 1590.16)"/><path d="M3355.94 1230.5 3355.94 1980.8 3349.06 1980.8 3349.06 1230.5ZM3366.25 1976.21 3352.5 2003.71 3338.75 1976.21Z"/><path d="M0-3.4375 179.973-3.4375 179.973 988.699 176.535 985.261 330.154 985.261 330.154 992.136 173.098 992.136 173.098 0 176.535 3.4375 0 3.4375ZM325.571 974.949 353.071 988.699 325.571 1002.45Z" transform="matrix(1 0 0 -1 2565.5 2105.2)"/><path d="M3.4375-6.21261e-06 3.43782 176.769-3.43718 176.769-3.4375 6.21261e-06ZM13.7503 172.185 0.000360892 199.685-13.7497 172.185Z" transform="matrix(-1 0 0 1 916.5 1792.5)"/><path d="M1310.5 2102.06 1675.39 2102.06 1675.39 2108.94 1310.5 2108.94ZM1670.81 2091.75 1698.31 2105.5 1670.81 2119.25Z"/><text font-family="Times New Roman,Times New Roman_MSFontService,sans-serif" font-weight="400" font-size="83" transform="matrix(1 0 0 1 1430.37 1554)">Y<tspan font-size="83" x="-399.999" y="354">N</tspan><tspan font-size="83" x="1147.24" y="-2">Y</tspan><tspan font-size="83" x="809.104" y="352">N</tspan></text></g></svg>