<svg width="4270" height="868" xmlns="http://www.w3.org/2000/svg" xmlns:xlink="http://www.w3.org/1999/xlink" overflow="hidden"><defs><clipPath id="clip0"><rect x="63" y="-2" width="4270" height="868"/></clipPath></defs><g clip-path="url(#clip0)" transform="translate(-63 2)"><rect x="598.5" y="228.5" width="573" height="407" stroke="#E7E6E6" stroke-width="4.58333" stroke-miterlimit="8" fill="#F2F2F2"/><text font-family="Times New Roman,Times New Roman_MSFontService,sans-serif" font-weight="400" font-size="83" transform="matrix(1 0 0 1 854.718 325)">A<tspan font-family="Calibri,Calibri_MSFontService,sans-serif" font-style="italic" font-weight="700" font-size="83" x="-68.1771" y="134">Client</tspan><tspan font-size="83" x="2.29132" y="270">B</tspan></text><rect x="1807.5" y="134.5" width="759" height="595" stroke="#E7E6E6" stroke-width="4.58333" stroke-miterlimit="8" fill="#D9D9D9"/><text font-family="Times New Roman,Times New Roman_MSFontService,sans-serif" font-weight="400" font-size="83" transform="matrix(1 0 0 1 2156.78 325)">A<tspan font-family="Calibri,Calibri_MSFontService,sans-serif" font-style="italic" font-weight="700" font-size="83" x="-72.4741" y="134">Cach</tspan><tspan font-family="Calibri,Calibri_MSFontService,sans-serif" font-style="italic" font-weight="700" font-size="83" x="91.3801" y="134">e</tspan><tspan font-size="83" x="2.29126" y="270">B</tspan></text><rect x="3200.5" y="0.499836" width="1130" height="863" stroke="#E7E6E6" stroke-width="4.58333" stroke-miterlimit="8" fill="#BFBFBF"/><text font-family="Times New Roman,Times New Roman_MSFontService,sans-serif" font-weight="400" font-size="83" transform="matrix(1 0 0 1 3735.41 325)">A<tspan font-family="Calibri,Calibri_MSFontService,sans-serif" font-style="italic" font-weight="700" font-size="83" x="-78.7761" y="134">Server</tspan><tspan font-size="83" x="2.2915" y="270">B</tspan></text><path d="M1022.5 294.062 2025.92 294.063 2025.92 300.938 1022.5 300.937ZM2021.34 283.75 2048.84 297.5 2021.34 311.25Z"/><path d="M2324.5 294.062 3604.49 294.063 3604.49 300.938 2324.5 300.937ZM3599.91 283.75 3627.41 297.5 3599.91 311.25Z"/><text font-family="Calibri,Calibri_MSFontService,sans-serif" font-style="italic" font-weight="700" font-size="83" transform="matrix(1 0 0 1 112.69 322)">Writ<tspan font-size="83" x="152.969" y="0">e</tspan><tspan font-size="83" x="7.69098" y="269">Rea</tspan><tspan font-size="83" x="138.316" y="269">d</tspan></text><path d="M4.95127e-06-3.4375 227.639-3.43717 227.639 3.43783-4.95127e-06 3.4375ZM223.055-13.7497 250.555 0.000360892 223.055 13.7503Z" transform="matrix(1 0 0 -1 347.5 297.5)"/><path d="M22.9165-3.43747 50.4165-3.43743 50.4165 3.43757 22.9165 3.43753ZM71.0415-3.4374 98.5415-3.43736 98.5415 3.43764 71.0415 3.4376ZM119.167-3.43733 146.667-3.43729 146.667 3.43771 119.167 3.43767ZM167.292-3.43726 194.792-3.43722 194.792 3.43778 167.292 3.43774ZM215.417-3.43719 242.917-3.43715 242.917 3.43785 215.417 3.43781ZM27.5 13.75 0 0 27.5-13.75Z" transform="matrix(1 0 0 -1 345.5 566.5)"/><path d="M1.20873e-06-3.4375 27.5-3.43749 27.5 3.43751-1.20873e-06 3.4375ZM48.125-3.43748 75.625-3.43747 75.625 3.43753 48.125 3.43752ZM96.25-3.43747 123.75-3.43746 123.75 3.43754 96.25 3.43753ZM144.375-3.43745 171.875-3.43744 171.875 3.43756 144.375 3.43755ZM192.5-3.43743 220-3.43742 220 3.43758 192.5 3.43757ZM240.625-3.43742 268.125-3.43741 268.125 3.43759 240.625 3.43758ZM288.75-3.4374 316.25-3.43739 316.25 3.43761 288.75 3.4376ZM336.875-3.43738 364.375-3.43737 364.375 3.43763 336.875 3.43762ZM385-3.43736 412.5-3.43735 412.5 3.43765 385 3.43764ZM433.125-3.43735 460.625-3.43734 460.625 3.43766 433.125 3.43765ZM481.25-3.43733 508.75-3.43732 508.75 3.43768 481.25 3.43767ZM529.375-3.43731 556.875-3.4373 556.875 3.4377 529.375 3.43769ZM577.5-3.4373 605-3.43729 605 3.43771 577.5 3.4377ZM625.625-3.43728 653.125-3.43727 653.125 3.43773 625.625 3.43772ZM673.75-3.43726 701.25-3.43725 701.25 3.43775 673.75 3.43774ZM721.875-3.43725 749.375-3.43724 749.375 3.43776 721.875 3.43775ZM770-3.43723 797.5-3.43722 797.5 3.43778 770 3.43777ZM818.125-3.43721 845.625-3.4372 845.625 3.4378 818.125 3.43779ZM866.25-3.4372 893.75-3.43719 893.75 3.43781 866.25 3.4378ZM914.375-3.43718 941.875-3.43717 941.875 3.43783 914.375 3.43782ZM962.5-3.43716 990-3.43715 990 3.43785 962.5 3.43784ZM998.836-13.7496 1026.34 0.000360892 998.836 13.7504Z" transform="matrix(-1 0 0 1 2048.84 567.5)"/><path d="M3627.41 570.938 3599.91 570.938 3599.91 564.063 3627.41 564.063ZM3579.28 570.938 3551.78 570.938 3551.78 564.063 3579.28 564.063ZM3531.16 570.938 3503.66 570.938 3503.66 564.063 3531.16 564.063ZM3483.03 570.938 3455.53 570.938 3455.53 564.063 3483.03 564.063ZM3434.91 570.938 3407.41 570.938 3407.41 564.063 3434.91 564.063ZM3386.78 570.938 3359.28 570.938 3359.28 564.063 3386.78 564.063ZM3338.66 570.938 3311.16 570.938 3311.16 564.063 3338.66 564.063ZM3290.53 570.938 3263.03 570.938 3263.03 564.063 3290.53 564.063ZM3242.41 570.938 3214.91 570.938 3214.91 564.063 3242.41 564.063ZM3194.28 570.938 3166.78 570.938 3166.78 564.063 3194.28 564.063ZM3146.16 570.938 3118.66 570.938 3118.66 564.063 3146.16 564.063ZM3098.03 570.938 3070.53 570.938 3070.53 564.063 3098.03 564.063ZM3049.91 570.938 3022.41 570.938 3022.41 564.063 3049.91 564.063ZM3001.78 570.938 2974.28 570.938 2974.28 564.063 3001.78 564.063ZM2953.66 570.938 2926.16 570.938 2926.16 564.063 2953.66 564.063ZM2905.53 570.938 2878.03 570.938 2878.03 564.063 2905.53 564.063ZM2857.41 570.938 2829.91 570.938 2829.91 564.063 2857.41 564.063ZM2809.28 570.938 2781.78 570.938 2781.78 564.063 2809.28 564.063ZM2761.16 570.938 2733.66 570.938 2733.66 564.063 2761.16 564.063ZM2713.03 570.938 2685.53 570.938 2685.53 564.063 2713.03 564.063ZM2664.91 570.938 2637.41 570.938 2637.41 564.063 2664.91 564.063ZM2616.78 570.938 2589.28 570.938 2589.28 564.063 2616.78 564.063ZM2568.66 570.938 2541.16 570.938 2541.16 564.063 2568.66 564.063ZM2520.53 570.938 2493.03 570.938 2493.03 564.063 2520.53 564.063ZM2472.41 570.938 2444.91 570.938 2444.91 564.063 2472.41 564.063ZM2424.28 570.938 2396.78 570.938 2396.78 564.062 2424.28 564.063ZM2376.16 570.938 2348.66 570.938 2348.66 564.062 2376.16 564.062ZM2352 581.25 2324.5 567.5 2352 553.75Z"/><text fill="#7F7F7F" font-family="Calibri,Calibri_MSFontService,sans-serif" font-style="italic" font-weight="400" font-size="73" transform="matrix(1 0 0 1 1243.39 260)">1. write to cache<tspan font-size="73" x="1387.92" y="0">2. write to server</tspan><tspan font-size="73" x="1356.7" y="399">3. read from server</tspan><tspan font-size="73" x="-31.224" y="393">4. read from cache</tspan></text></g></svg>